<svg width="250.66mm" height="54.066mm" version="1.1" viewBox="0 0 250.66 54.066" xml:space="preserve" xmlns="http://www.w3.org/2000/svg"><g transform="translate(-27.171 -82.323)" fill="#989898"><path d="m48.492 135.97c-10.208-2.2596-17.864-9.5901-20.704-19.825-0.76914-2.772-0.83429-10.365-0.11164-13.011 2.0579-7.5365 6.2271-13.186 12.577-17.044 8.7895-5.3393 20.426-4.974 29.172 0.91582 2.1655 1.4583 5.6422 4.935 7.1005 7.1005 3.6274 5.3865 5.3234 12.337 4.5168 18.51-1.4971 11.459-9.145 20.109-20.512 23.199-2.5435 0.69156-9.2235 0.77688-12.039 0.15376zm11.185-5.2977c1.1312-0.29285 3.1026-1.0726 4.3809-1.7328 4.3869-2.2657 7.5116-5.4279 9.6825-9.7983 1.79-3.6038 2.1227-5.1328 2.1299-9.7896 7e-3 -4.6173-0.38922-6.2852-2.4523-10.319-1.0047-1.9643-1.6836-2.847-3.8777-5.041-2.194-2.194-3.0767-2.873-5.041-3.8777-4.0336-2.063-5.7015-2.4594-10.319-2.4523-4.6568 0.0072-6.1858 0.33987-9.7896 2.1299-4.5296 2.2499-7.6872 5.4392-9.9353 10.035-1.7861 3.6512-2.214 5.5628-2.1913 9.7896 0.01564 2.9205 0.124 3.7913 0.71797 5.7699 1.2136 4.0427 3.02 6.9997 6.0206 9.8557 3.4674 3.3002 7.3089 5.2136 11.954 5.9541 2.0853 0.33241 6.4191 0.0722 8.7203-0.52352zm-19.193-16.099-2.0422-2.0543 15.742-15.735 15.868 15.875-4.0971 4.0971-11.642-11.633-5.7569 5.7524c-3.1663 3.1638-5.8182 5.7524-5.8932 5.7524-0.07496 0-1.0553-0.92442-2.1785-2.0543z" fill="#989898"/></g><text transform="matrix(.51801 0 0 .51801 -71 -15.928)" fill="#000000" font-size="96px" style="shape-inside:url(#rect1);white-space:pre" xml:space="preserve"><tspan x="241.75781" y="117.60484"><tspan font-family="Inter" font-weight="600">Latitude</tspan></tspan></text></svg>
